<mxfile host="app.diagrams.net" modified="2024-02-05T16:51:35.703Z" agent="Mozilla/5.0 (X11; Linux x86_64) AppleWebKit/537.36 (KHTML, like Gecko) Chrome/111.0.0.0 Safari/537.36" version="23.1.1" etag="hec5Fza2zSNdt55WQ_Si" type="github">
  <diagram name="Page-1" id="vio_B5QSsrorXNMzJPMe">
    <mxGraphModel>
      <root>
        <mxCell id="0" />
        <mxCell id="1" parent="0" />
      </root>
    </mxGraphModel>
  </diagram>
</mxfile>
